<svg xmlns="http://www.w3.org/2000/svg" xmlns:xlink="http://www.w3.org/1999/xlink" viewBox="0 0 581.62 378.57"><defs><style>.cls-1{fill:url(#Degradado_sin_nombre_66);}.cls-2{fill:url(#Degradado_sin_nombre_40);}.cls-3{fill:url(#Degradado_sin_nombre_51);}.cls-4{fill:url(#Degradado_sin_nombre_40-2);}.cls-5{fill:url(#Degradado_sin_nombre_40-3);}.cls-6{fill:url(#Degradado_sin_nombre_40-4);}.cls-7{fill:url(#Degradado_sin_nombre_40-5);}.cls-8{fill:url(#Degradado_sin_nombre_40-6);}.cls-9{fill:url(#Degradado_sin_nombre_40-7);}.cls-10{fill:url(#Degradado_sin_nombre_40-9);}.cls-11{fill:#090909;}.cls-12{fill:#e0d816;}.cls-13{fill:url(#Degradado_sin_nombre_40-10);}.cls-14{fill:url(#Degradado_sin_nombre_40-11);}.cls-15{fill:url(#Degradado_sin_nombre_40-12);}.cls-16{fill:url(#Degradado_sin_nombre_40-13);}.cls-17{fill:url(#Degradado_sin_nombre_40-14);}</style><linearGradient id="Degradado_sin_nombre_66" x1="206.6" y1="234.1" x2="247.71" y2="234.1" gradientUnits="userSpaceOnUse"><stop offset="0" stop-color="#e0001e"/><stop offset="0.97" stop-color="#a40051"/></linearGradient><linearGradient id="Degradado_sin_nombre_40" x1="-9.43" y1="230.57" x2="583.94" y2="230.57" gradientUnits="userSpaceOnUse"><stop offset="0" stop-color="#e0001e"/><stop offset="0.19" stop-color="#e0001e"/><stop offset="0.26" stop-color="#971a4f"/><stop offset="0.33" stop-color="#56317b"/><stop offset="0.39" stop-color="#28419a"/><stop offset="0.43" stop-color="#0b4bae"/><stop offset="0.46" stop-color="#004fb5"/><stop offset="0.61" stop-color="#0198e0"/><stop offset="0.88" stop-color="#e0d816"/><stop offset="1" stop-color="#e0d816"/></linearGradient><linearGradient id="Degradado_sin_nombre_51" x1="136.92" y1="22.26" x2="163.69" y2="22.26" gradientUnits="userSpaceOnUse"><stop offset="0" stop-color="#e0d816"/><stop offset="1" stop-color="#e0d816"/></linearGradient><linearGradient id="Degradado_sin_nombre_40-2" x1="0" y1="221.35" x2="581.62" y2="221.35" xlink:href="#Degradado_sin_nombre_40"/><linearGradient id="Degradado_sin_nombre_40-3" x1="0" y1="135.93" x2="581.62" y2="135.93" xlink:href="#Degradado_sin_nombre_40"/><linearGradient id="Degradado_sin_nombre_40-4" x1="0" y1="146.2" x2="281.85" y2="146.2" xlink:href="#Degradado_sin_nombre_40"/><linearGradient id="Degradado_sin_nombre_40-5" x1="0" y1="70.49" x2="581.62" y2="70.49" xlink:href="#Degradado_sin_nombre_40"/><linearGradient id="Degradado_sin_nombre_40-6" x1="0" y1="60.82" x2="581.62" y2="60.82" xlink:href="#Degradado_sin_nombre_40"/><linearGradient id="Degradado_sin_nombre_40-7" x1="0" y1="260.76" x2="581.62" y2="260.76" xlink:href="#Degradado_sin_nombre_40"/><linearGradient id="Degradado_sin_nombre_40-9" x1="-0.34" y1="215.12" x2="582.14" y2="215.12" xlink:href="#Degradado_sin_nombre_40"/><linearGradient id="Degradado_sin_nombre_40-10" x1="0" y1="149.92" x2="581.62" y2="149.92" xlink:href="#Degradado_sin_nombre_40"/><linearGradient id="Degradado_sin_nombre_40-11" x1="0" y1="125.98" x2="581.62" y2="125.98" xlink:href="#Degradado_sin_nombre_40"/><linearGradient id="Degradado_sin_nombre_40-12" x1="0" y1="178.86" x2="581.62" y2="178.86" xlink:href="#Degradado_sin_nombre_40"/><linearGradient id="Degradado_sin_nombre_40-13" x1="0" y1="45.66" x2="581.62" y2="45.66" xlink:href="#Degradado_sin_nombre_40"/><linearGradient id="Degradado_sin_nombre_40-14" x1="0" y1="88.55" x2="581.62" y2="88.55" xlink:href="#Degradado_sin_nombre_40"/></defs><g id="Capa_2" data-name="Capa 2"><g id="Capa_1-2" data-name="Capa 1"><polygon class="cls-1" points="247.71 238.96 247.67 209.51 206.59 228.96 206.59 258.68 247.71 238.96"/><path class="cls-2" d="M466.58,246V214.84l-215.71,1-.28,25.22s-10.82,4.88-10.78,5.18Z"/><path class="cls-3" d="M162.32,27.8c.77-.4,1.38-.75,1.37-1.81,0-7.47,0-14.93,0-22.4l-.95-.19c-8.34,12.16-25.38,37-25.8,37.71C136.68,41.52,154.28,32,162.32,27.8Z"/><path class="cls-4" d="M176.34,243.09s7.48-.05,9.64-.17c.05-2.27.05-43.3.05-43.3h-9.69Z"/><path class="cls-5" d="M175.68,165.17c0,2.36.7,3,2.95,3,17.41,0,34.81.12,52.22.21,3.72,0,7.43.2,11.15.15,2.7,0,3.36,1.43,3.65,3.79.53,4.27-.59,7.44-5.43,8.7l.52.79H466.58V146.55s-14.17-.05-19.81-.05q-104.13-.08-208.25-.15c-2.39,0-4.77-.12-7.16-.19v.07l0,0v-.05h0l-.09-32.36a.44.44,0,0,0,.13-.48c1.32,0,2.64-.1,4-.1h223c1.92,0,3.85-.11,5.76,0s2.45-.55,2.41-2.46c-.12-5.52-.23-11,.06-16.57.16-3.29-.84-4.15-4.13-4.15-94.64.08-287.63,0-287.63,0s0,.8,0,3.8Q175.46,129.51,175.68,165.17Z"/><path class="cls-6" d="M231.32,146.21l0,0,0-.07Z"/><path class="cls-7" d="M184,85.78c91.84-.11,278,0,278,0a138.84,138.84,0,0,1,14.63-7.39c-1.27.07-32.94,3.4-49,4.25q-50.93,2.69-101.88.78c-28.54-1-57.06-2.52-85.19-7.93-5.77-1.11-11.76-2.25-16.34-6.58a.27.27,0,0,0-.1-.39c1-4,4.51-4.62,7.55-5.66,9.73-3.32,19.91-4.61,30-6,2.9-.41,12.06-1.45,12.05-1.59H255c-2.15-.05-15.9,0-15.9,0s-2.65,1.33-8.27,4.11c-15.78,7.77-27.13,13.68-43,21.28l-10.81,5.18Z"/><path class="cls-8" d="M513.13,65.62a4.51,4.51,0,0,0,3.8-.19c6.59-2.46,22.83-8.49,25.61-9.76-21.15,0-72.86-.07-72.9.23,1.82.33,8.83.62,10.68.77A86.68,86.68,0,0,1,513.13,65.62Z"/><path class="cls-9" d="M91.13,250.17C78,265.3,29.38,270.9,13.34,271.09c5.38.12,10.75.12,16.12.12q29.53.06,59.06.13c1.49,0,2.63-.09,2.62-2C91.11,263.26,91.13,257.17,91.13,250.17Z"/><path class="cls-6" d="M231.35,146.23v-.07h0Z"/><path class="cls-10" d="M197.21,243.15c.95.06,5.84,0,5.84,0l.33-17.3L228,214.22l.22-27.16L200,200.14h-2.76S197.1,238.31,197.21,243.15Z"/><path class="cls-11" d="M200,196.43s12-5.27,16.6-7.54,9.34-4.54,14.34-7c0,10.69,0,21,0,31.19,1.55-.81,4.73-2.41,4.73-2.41s0-22.72.12-28.06a26.08,26.08,0,0,0,0-2.67l5.87-3.16s0-3,0-4.71c-12.62,6.17-41.9,19.78-41.9,19.78H118.43v4.75h1.73a6.29,6.29,0,0,0,1,0l1,0H124c2.5.12,2.83,1,2.87,4.26v41.7h4.8V198.68c.11-1.15.51-1.8,1.53-2H139c3.4.07,6.81.07,10.21,0l8.41,0c-.11,5.05-.09,46.42-.09,46.42h4.6V198.7c.17-1.55.71-1.95,2.45-2.06h9.63c2.19,0,4.37,0,6.56,0h8.36c0,1.15-.19,30-.21,43.22,0,1.64-.44,3.2,2.37,3.22s2.35-1.5,2.35-3.14c0-13.32,0-42.22,0-43.43C193.69,196.52,199.35,196.48,200,196.43Z"/><path class="cls-12" d="M131.86,186.53c-.93.41-7.19,3.38-7.19,3.38s11,.24,14,.24q29,0,58,.07a10.68,10.68,0,0,0,3.82-.84c7.08-2.67,13.46-6.78,20.3-9.94,4.41-2,12.86-5.79,17.24-7.9-.06-.32-51.06,0-73.26,0-.93,0-11.69,5.06-16.28,7.07C142,181.45,138.31,183.65,131.86,186.53Z"/><path class="cls-11" d="M494.15,324.39c-2.52.05-5,0-7.56,0-10.21.15-20.38.07-30.4-2.38-2.42-.58-2.71-1.22-1.42-3.42A229.25,229.25,0,0,0,472.4,280.2c1.31-3.64,6.38-15.87,1.72-14.4-6.1,1.92-9.07,10.08-11.45,15.3-3.76,8.28-7.36,16.64-11.3,24.84-4.25,8.84-7.29,18.49-16.82,23.82-3.07,1.73-4.28,5.45-3.5,9.22s1.92,4.24,5.49,2.71c3.24-1.39,5.27-4.13,7.42-6.65,3.76-4.39,8.3-5.57,13.86-4.57,9.44,1.69,18.85,3.46,28.57,2.72,4.84-.38,7.22-3.23,9.18-7C496.36,324.72,495.53,324.37,494.15,324.39Z"/><path class="cls-11" d="M418.89,316.38a94.74,94.74,0,0,1,3.69-14.23c3.06-8.8,6.73-17.38,9.27-26.36.91-3.23,2.07-6.46.45-9.78-.95-1.93-2.12-2.11-3.92-.69-3,2.33-4.3,6-5.46,9.6-1.55,4.77-2.83,9.63-4.42,14.38-1.21,3.6-1.74,7.6-4.68,10.34-7.7,7.21-15.71,14-25.07,19.07-1.3.7-2.92,2.32-4.07,1.33s-1.32-3-1.21-4.71c0-.59.16-1.18.24-1.77,1.08-8.13,4.63-15.51,7.09-23.22,1.25-3.9,2.55-7.76,1.93-11.93-.35-2.35-.1-5.55-3.49-4.41-3,1-4.64,7.22-5.75,10.2a100.89,100.89,0,0,0-6.76,36.12c0,3.08.44,6.2,3.38,7.83s5.87.3,8.4-1.41q7.56-5.12,14.94-10.52c3-2.15,5.76-4.5,9.22-7.23-.37,2.06-.61,3.32-.83,4.59-.72,4.14-1.27,8.29-.48,12.5.64,3.41,2.4,5.55,6.08,6,2.82.34,5.48-.18,8.55-.74C418.55,325.31,417.63,323.41,418.89,316.38Z"/><path class="cls-11" d="M358.4,271.62a101.15,101.15,0,0,0-20.14-.15c-9.38.9-13,5.3-12.2,14.83,1.89-1.17,3.06-3.33,5.53-3.84.17,4.53-1.16,8.44-2.9,12.27-5.14,11.31-14.1,20.82-15.39,34.08a58.2,58.2,0,0,0-5.48-3.12,5.1,5.1,0,0,1-3.29-4.69c-.51-8.25-1.07-16.55.19-24.74s.22-15.24-6.07-21.15q-12.87,16.56-25.65,33c-.62.8-1.2,2.31-2.41,1.55-.88-.55-.24-1.88,0-2.94,1.8-7.68,2.39-15.36,0-23.05a11.71,11.71,0,0,0-10.75-8.56,21.62,21.62,0,0,0-14.71,4.79,11.15,11.15,0,0,0-4.34,9.95c2-1.27,3.61-2.24,5.13-3.37a20,20,0,0,1,9.59-3.74c5.82-.76,8.52,1.56,9,7.37.6,8.08-1.43,15.66-4,23.17-1.5,4.41-3.12,8.8-3.54,13.49-.21,2.36-1.16,5.51,1.21,6.61s4.06-1.82,5.59-3.48A236.21,236.21,0,0,0,281,308.75c4.73-6.52,9.48-13,15.27-20,0,10,0,18.93,0,27.89a26.82,26.82,0,0,0,2.47,11.49,6.55,6.55,0,0,0,7.18,4.1c3-.28,5.39-2.37,9-1.64,3.1.63,6.22-2.19,7-6a35.68,35.68,0,0,1,4.79-11.16c5.73-9.58,10.82-19.4,12.26-30.71a4,4,0,0,1,4-3.82c5.76-.43,11.47-.52,17.07,1.32,6.1,2,8.85,6.11,7.54,12.35-2.42,11.58-9.08,20.51-18.39,27.45-7.33,5.46-15.14,7.06-23.5.86-.79,9.16,3.37,12.89,11.8,11.07a45,45,0,0,0,17.74-8.26c10.23-7.71,18.55-17,19.88-30.3C376.36,281.34,371.2,272.93,358.4,271.62Z"/><path class="cls-11" d="M541.2,302a32.09,32.09,0,0,0-6.05-.42s.55-9.81.29-12.79c-.66-7.43-1.83-14.72-6.45-21-1.17-1.58-2-1.66-3.24-.08a26.42,26.42,0,0,0-4.1,7.51,117.07,117.07,0,0,1-10.77,22.18c-5.7,9.13-10.77,18.66-13.53,29.19-.45,1.74-1.77,4.35-.16,5.32,1.78,1.06,4.45.47,6.37-1.12a27.14,27.14,0,0,0,2.64-2.38c2.08-2.26,2.6-4.4,3.28-7.32.92-4,4.29-11.48,4.29-11.48l12.9.47s0,.63-.07,2.45c-.12,5,0,10.08,0,15.12,0,2.83-.39,8.08,2.75,7.81,2.8-.24,2.28-4.61,2.55-7,.47-4.41,1.07-8.8,1.5-13.21.28-3,.43-5,.43-5s8.29,0,10.14.31c1.15.16,1.64-1.86,1.06-3.92C544.21,303.78,544.05,302.49,541.2,302ZM528,297.19c0,2-1.8,2.39-3.38,2.45-2.62.12-5.26,0-8.23,0,2.59-7.83,5.38-15,10.4-21.81A120.63,120.63,0,0,1,528,297.19Z"/><path class="cls-13" d="M581.58,140c-.14-7.67-.06-15.34-2.8-22.74s-5.66-9.36-13.3-9.39c-7.41,0-13.6,3.63-20.15,6.13-13.22,5-26.33,10.36-39.48,15.58-2.65,1.05-3.83.25-3.76-2.64.14-6,.21-12,.25-18,0-1.69.26-2.92,2.13-3.65,12.95-5.06,25.79-10.4,38.82-15.22,3.63-1.35,4.91-3.36,4.89-6.83,0-7,0-13.9-.14-20.85,0-2.19,0-4.07,0-4.07s-29.26,11.6-42,16.75c-6.41,2.59-12.7,5.32-18,10-8.27,7.31-10.9,17.1-12.21,27.25-1.85,14.44-1.12,29-.63,43.52a30.13,30.13,0,0,0,2.47,11.55c2.72,6.05,5.38,7.62,11.91,7.83,7,.23,12.64-3.47,18.74-5.71,14.15-5.22,28.13-10.89,42.16-16.44,2.86-1.14,3.91-.45,3.86,2.67-.11,6.13-.13,12.26.13,18.37.12,2.88-.91,4.48-3.5,5.47-11,4.19-21.91,8.45-32.86,12.69L477.43,208a3.59,3.59,0,0,0-2.61,3.5c0,9.24,0,18.49,0,27.73,0,2.52.72,2.67,3,1.77,7.44-3,15-5.61,22.49-8.44s15-5.74,22.44-8.61c10.75-4.11,21.51-8.16,32.23-12.33,12-4.67,20.33-12.66,23.91-25.41,3.31-11.79,2.65-23.78,2.78-35.76C581.59,147,581.65,143.5,581.58,140Z"/><path class="cls-14" d="M87.62,111.67c-27.73.15-55.47.12-83.21.13a11,11,0,0,0-4.41.73c12.25,1.84,24.5,3.71,36.55,6.54,19,4.45,38,8.92,54.71,21.22,0-8.59-.13-16.7.07-24.81C91.4,112.55,90.66,111.66,87.62,111.67Z"/><path class="cls-15" d="M124.17,253.72c-5.54-17.83-10.91-35.72-16.36-53.58-1.46-4.82-1.49-4.78,3-6.88,12.38-5.74,24.71-11.59,37.16-17.18,2.2-1,2.67-2.15,2.68-4.3q.06-40.34.25-80.68c0-4.74-.07-4.83-4.26-2.94-15.83,7.13-31.61,14.37-47.45,21.46-2,.91-2.46,2.18-2.45,4.2q.07,38.35,0,76.72h.07q0,13.88,0,27.74,0,24.5,0,49c0,4,.07,4.13,3.8,2.29,7.19-3.55,14.28-7.33,21.51-10.81C124.65,257.55,125,256.27,124.17,253.72Z"/><path d="M239.84,252.16c-.91-.14-2.12-.59-2.55.58-1.79,4.88-4.27,9.68-2.84,15.25,6.47-3.13,9.77-8.41,11.93-14.79C244.07,252.83,242,252.47,239.84,252.16Z"/><path class="cls-16" d="M102.38,90.12q21.77-11.43,43.76-22.46a4.15,4.15,0,0,0,2.6-4.49c-.28-6.71-.44-13.42-.6-20.13-.08-3.7-.18-3.78-3.48-2-4.87,2.55-9.72,5.12-14.64,7.56-.56.28-4.94,2.59-4.94,2.59s2.87-3.78,3.36-4.49c5.3-7.54,10.6-15.07,15.8-22.68,1.32-1.94,3.4-3.69,3.5-6.12.22-5.27,0-10.56,0-15.83,0-1.73-.83-1.88-2.19-2-3.22-.28-4.59,2.28-6.35,4.09C123.4,20.28,107.67,36.52,91.86,52.7A5.81,5.81,0,0,0,90,57.11c.08,5.16,0,10.32,0,15.49h.07c0,5.4,0,10.8,0,16.2,0,1-.33,2.48,1.33,2.42C95.11,91.08,98.75,92,102.38,90.12Z"/><path class="cls-17" d="M125.11,92.28c.17,1.13,1.43,0,2-.27,4.8-2.09,9.57-4.26,14.33-6.45.47-.22,1.38-.37,1-1.23H116C119.67,87.15,124.35,87.33,125.11,92.28Z"/><path class="cls-11" d="M196.15,303.61c.3-2.26-13.91,5.78-13.91,5.78s1.43-3.45,2.14-5.5a126.79,126.79,0,0,0,4.12-17.08c1.17-6,1.39-11.91-.46-17.8-2-6.44-4.76-7.66-10.63-4.29-12.61,7.22-22.9,17.25-32.67,27.83-3.82,4.13-7.18,8.69-9,14.14a5.58,5.58,0,0,0,5.51,7.29,66.92,66.92,0,0,0,20.66-4.2,16.13,16.13,0,0,0,9.13-8.5A149.08,149.08,0,0,1,147.63,306c-1.07.12-3.85.6-3.43-.72a6.87,6.87,0,0,1,1.54-2.55c8.11-10.16,17.12-19.37,28-26.64,2-1.31,4.32-4.22,5.94-3.25,2,1.18,1.46,4.76,1.61,7.32.9,14.67-8.18,32.75-8.18,32.75s-8.13,5.16-13.51,8.5c-9.35,5.82-19.25,10.67-28.46,16.7-7.42,4.87-14.77,9.88-18.39,18.59-2.61,6.28-1.09,13.14,4.25,17.15,9.13,6.85,25,6.73,32.85-4a145.5,145.5,0,0,0,12.91-21.54c4.12-8.35,14.41-29.38,14.41-29.38a84.5,84.5,0,0,1,8.9-4.82C190.81,312,195.36,309.52,196.15,303.61ZM164.62,329c-6.26,10.86-11.31,22.44-18.68,32.63-3.9,5.39-8.68,10-16.31,9.47a12,12,0,0,1-9.4-5.11,4.4,4.4,0,0,1-.65-4.63,19.87,19.87,0,0,1,5.08-8.14,191.19,191.19,0,0,1,40.87-28.09C166.06,326.76,165.21,328,164.62,329Z"/><path class="cls-11" d="M235.72,301.87c-4.16.16-6.58.27-6.58.27s.45-13,0-16.83c-.75-5.83-2-11.56-5.39-16.57-1.52-2.24-2.83-2.94-4.62-.13a42,42,0,0,0-4.39,9,87.3,87.3,0,0,1-8.73,18c-6.16,9.85-11.72,20.05-14.72,31.41-.45,1.69-1.31,4.06.16,5s3.74.28,5.49-.72a12.26,12.26,0,0,0,4.16-3.91,23.79,23.79,0,0,0,3-6.49c2.77-9.24,2.8-9.24,12.48-10.24.6-.06,4.57-.17,4.57-.17s-.07,3.33-.11,5.16c-.12,4.8-.43,6.48-.43,11.29,0,3-.69,8.69,2.72,8.54,2.23-.09,4.7.16,4.94-1.9.46-4,0-10.92.53-15,.28-2.14.42-8.48.42-8.48s2.29-.14,4.37-.11c1.1,0,3.67,0,4.78.09,1.92.13,2.35-1.61,1.64-3.93S238.35,301.77,235.72,301.87Zm-13.84-4.65c0,2-1.53,2.32-3,2.39-2.74.13-5.5,0-8.62,0,2.79-7.75,5.38-15,10.41-21.61C222.16,284.65,221.84,291,221.88,297.22Z"/></g></g></svg>