<svg xmlns="http://www.w3.org/2000/svg" xmlns:xlink="http://www.w3.org/1999/xlink" viewBox="0 0 53.38 53.38"><defs><style>.cls-1{fill:none;}.cls-2{fill:url(#Degradado_sin_nombre_66);}.cls-3{fill:url(#Degradado_sin_nombre_40);}.cls-4{fill:url(#Degradado_sin_nombre_51);}.cls-5{fill:url(#Degradado_sin_nombre_40-2);}.cls-6{fill:url(#Degradado_sin_nombre_40-3);}.cls-7{fill:url(#Degradado_sin_nombre_40-4);}.cls-8{fill:url(#Degradado_sin_nombre_40-5);}.cls-9{fill:url(#Degradado_sin_nombre_40-6);}.cls-10{fill:url(#Degradado_sin_nombre_40-7);}.cls-11{fill:url(#Degradado_sin_nombre_40-9);}.cls-12{fill:#090909;}.cls-13{fill:#e0d816;}.cls-14{fill:url(#Degradado_sin_nombre_40-10);}.cls-15{fill:url(#Degradado_sin_nombre_40-11);}.cls-16{fill:url(#Degradado_sin_nombre_40-12);}.cls-17{fill:url(#Degradado_sin_nombre_40-13);}.cls-18{fill:url(#Degradado_sin_nombre_40-14);}</style><linearGradient id="Degradado_sin_nombre_66" x1="18.96" y1="31.44" x2="22.74" y2="31.44" gradientUnits="userSpaceOnUse"><stop offset="0" stop-color="#e0001e"/><stop offset="0.97" stop-color="#a40051"/></linearGradient><linearGradient id="Degradado_sin_nombre_40" x1="-0.87" y1="31.12" x2="53.6" y2="31.12" gradientUnits="userSpaceOnUse"><stop offset="0" stop-color="#e0001e"/><stop offset="0.19" stop-color="#e0001e"/><stop offset="0.26" stop-color="#971a4f"/><stop offset="0.33" stop-color="#56317b"/><stop offset="0.39" stop-color="#28419a"/><stop offset="0.43" stop-color="#0b4bae"/><stop offset="0.46" stop-color="#004fb5"/><stop offset="0.61" stop-color="#0198e0"/><stop offset="0.88" stop-color="#e0d816"/><stop offset="1" stop-color="#e0d816"/></linearGradient><linearGradient id="Degradado_sin_nombre_51" x1="12.57" y1="12" x2="15.02" y2="12" gradientUnits="userSpaceOnUse"><stop offset="0" stop-color="#e0d816"/><stop offset="1" stop-color="#e0d816"/></linearGradient><linearGradient id="Degradado_sin_nombre_40-2" x1="0" y1="30.27" x2="53.38" y2="30.27" xlink:href="#Degradado_sin_nombre_40"/><linearGradient id="Degradado_sin_nombre_40-3" x1="0" y1="22.43" x2="53.38" y2="22.43" xlink:href="#Degradado_sin_nombre_40"/><linearGradient id="Degradado_sin_nombre_40-4" x1="0" y1="23.37" x2="25.87" y2="23.37" xlink:href="#Degradado_sin_nombre_40"/><linearGradient id="Degradado_sin_nombre_40-5" x1="0" y1="16.42" x2="53.38" y2="16.42" xlink:href="#Degradado_sin_nombre_40"/><linearGradient id="Degradado_sin_nombre_40-6" x1="0" y1="15.54" x2="53.38" y2="15.54" xlink:href="#Degradado_sin_nombre_40"/><linearGradient id="Degradado_sin_nombre_40-7" x1="0" y1="33.89" x2="53.38" y2="33.89" xlink:href="#Degradado_sin_nombre_40"/><linearGradient id="Degradado_sin_nombre_40-9" x1="-0.03" y1="29.7" x2="53.43" y2="29.7" xlink:href="#Degradado_sin_nombre_40"/><linearGradient id="Degradado_sin_nombre_40-10" x1="0" y1="23.71" x2="53.38" y2="23.71" xlink:href="#Degradado_sin_nombre_40"/><linearGradient id="Degradado_sin_nombre_40-11" x1="0" y1="21.52" x2="53.38" y2="21.52" xlink:href="#Degradado_sin_nombre_40"/><linearGradient id="Degradado_sin_nombre_40-12" x1="0" y1="26.37" x2="53.38" y2="26.37" xlink:href="#Degradado_sin_nombre_40"/><linearGradient id="Degradado_sin_nombre_40-13" x1="0" y1="14.15" x2="53.38" y2="14.15" xlink:href="#Degradado_sin_nombre_40"/><linearGradient id="Degradado_sin_nombre_40-14" x1="0" y1="18.08" x2="53.38" y2="18.08" xlink:href="#Degradado_sin_nombre_40"/></defs><g id="Capa_2" data-name="Capa 2"><g id="Capa_1-2" data-name="Capa 1"><rect class="cls-1" width="53.38" height="53.38"/><polygon class="cls-2" points="22.74 31.89 22.73 29.18 18.96 30.97 18.96 33.7 22.74 31.89"/><path class="cls-3" d="M42.82,32.53V29.67L23,29.77l0,2.31s-1,.45-1,.48Z"/><path class="cls-4" d="M14.9,12.51c.07,0,.12-.07.12-.17V10.28h-.09c-.76,1.11-2.32,3.39-2.36,3.46S14.16,12.89,14.9,12.51Z"/><path class="cls-5" d="M16.19,32.27l.88,0v-4h-.88Z"/><path class="cls-6" d="M16.12,25.11c0,.22.07.28.27.28l4.8,0c.34,0,.68,0,1,0s.31.13.34.35a.64.64,0,0,1-.5.8l.05.07H42.82V23.41H21.89l-.66,0h0v-3a.07.07,0,0,0,0,0H42.07c.18,0,.35,0,.53,0s.23-.05.22-.23c0-.5,0-1,0-1.52,0-.3-.08-.38-.38-.38-8.69,0-26.4,0-26.4,0a2.62,2.62,0,0,0,0,.35Q16.11,21.84,16.12,25.11Z"/><polygon class="cls-7" points="21.23 23.37 21.23 23.38 21.23 23.37 21.23 23.37"/><path class="cls-8" d="M16.88,17.83H42.4a11.87,11.87,0,0,1,1.34-.68c-.12,0-3,.31-4.5.39q-4.66.24-9.35.07a50,50,0,0,1-7.82-.73,2.78,2.78,0,0,1-1.5-.6s0,0,0,0c.09-.36.42-.42.7-.52A15.05,15.05,0,0,1,24,15.17c.27,0,1.11-.13,1.11-.15H22l-.76.38c-1.45.71-2.49,1.25-4,2l-1,.48Z"/><path class="cls-9" d="M47.1,16a.43.43,0,0,0,.35,0c.6-.23,2.09-.78,2.35-.9-1.95,0-6.69,0-6.7,0,.17,0,.82.06,1,.08A8,8,0,0,1,47.1,16Z"/><path class="cls-10" d="M8.36,32.92c-1.2,1.38-5.66,1.9-7.14,1.92H8.13c.13,0,.24,0,.23-.18Z"/><polygon class="cls-7" points="21.23 23.38 21.23 23.37 21.23 23.37 21.23 23.38"/><path class="cls-11" d="M18.1,32.27h.54l0-1.59,2.26-1.06,0-2.5-2.6,1.2H18.1S18.09,31.83,18.1,32.27Z"/><path class="cls-12" d="M18.36,28s1.1-.48,1.52-.69l1.32-.64v2.86l.43-.22s0-2.08,0-2.57a1.18,1.18,0,0,0,0-.25l.54-.29v-.43c-1.16.57-3.84,1.82-3.84,1.82H10.87V28h.51c.23,0,.26.09.26.39v3.83h.44v-4c0-.11.05-.17.14-.19h.54c.31,0,.62,0,.94,0h.77c0,.46,0,4.26,0,4.26h.42V28.19c0-.14.07-.18.23-.19h2.25c0,.11,0,2.76,0,4,0,.15,0,.29.22.3s.22-.14.21-.29c0-1.23,0-3.88,0-4Z"/><path class="cls-13" d="M12.1,27.07l-.66.31,1.29,0h5.32a1,1,0,0,0,.35-.07c.65-.25,1.24-.63,1.86-.92l1.59-.72s-4.69,0-6.73,0c-.08,0-1.07.46-1.49.65C13,26.61,12.69,26.81,12.1,27.07Z"/><path class="cls-12" d="M45.35,39.73h-.69a10.89,10.89,0,0,1-2.79-.22c-.22,0-.25-.11-.13-.31a20.85,20.85,0,0,0,1.62-3.53c.12-.33.58-1.46.16-1.32s-.84.93-1.05,1.4c-.35.76-.68,1.53-1,2.28a4.17,4.17,0,0,1-1.55,2.19.77.77,0,0,0-.32.85c.07.34.18.39.51.25a2.09,2.09,0,0,0,.68-.61A1.21,1.21,0,0,1,42,40.29a10.49,10.49,0,0,0,2.62.24,1,1,0,0,0,.85-.63C45.56,39.76,45.48,39.73,45.35,39.73Z"/><path class="cls-12" d="M38.45,39a8.28,8.28,0,0,1,.34-1.3c.28-.81.61-1.6.85-2.42a1.22,1.22,0,0,0,0-.9c-.09-.18-.2-.19-.36-.06a1.62,1.62,0,0,0-.5.88c-.15.43-.26.88-.41,1.32a2.11,2.11,0,0,1-.43,1,11.27,11.27,0,0,1-2.3,1.75c-.12.06-.27.21-.37.12a.56.56,0,0,1-.11-.43,1,1,0,0,1,0-.17,12.45,12.45,0,0,1,.65-2.13,2.56,2.56,0,0,0,.18-1.09c0-.22,0-.51-.32-.41s-.43.67-.53.94a9.17,9.17,0,0,0-.62,3.31.73.73,0,0,0,.31.72.71.71,0,0,0,.77-.13c.46-.31.92-.63,1.37-1,.27-.2.53-.42.85-.67,0,.19-.06.31-.08.43a2.92,2.92,0,0,0,0,1.14.58.58,0,0,0,.55.55,2.4,2.4,0,0,0,.79-.07C38.42,39.81,38.33,39.64,38.45,39Z"/><path class="cls-12" d="M32.89,34.88a9.43,9.43,0,0,0-1.84,0c-.86.08-1.2.49-1.12,1.36.17-.11.28-.3.5-.35A2.44,2.44,0,0,1,30.17,37c-.47,1-1.3,1.91-1.41,3.12-.2-.11-.35-.21-.51-.28a.47.47,0,0,1-.3-.43,10.13,10.13,0,0,1,0-2.27,2,2,0,0,0-.56-1.95l-2.35,3c-.06.07-.11.21-.22.14s0-.17,0-.27a4,4,0,0,0,0-2.11,1.08,1.08,0,0,0-1-.79,2,2,0,0,0-1.35.44,1,1,0,0,0-.4.91,4.79,4.79,0,0,0,.47-.31,1.87,1.87,0,0,1,.88-.34c.53-.07.78.14.82.68a5.3,5.3,0,0,1-.37,2.12,5.39,5.39,0,0,0-.32,1.24c0,.22-.11.51.11.61s.37-.17.51-.32a21,21,0,0,0,1.59-1.94c.43-.6.87-1.19,1.4-1.83V39a2.4,2.4,0,0,0,.23,1,.62.62,0,0,0,.66.38c.27,0,.49-.22.83-.15a.63.63,0,0,0,.64-.56,3.19,3.19,0,0,1,.44-1,7.36,7.36,0,0,0,1.12-2.82.38.38,0,0,1,.37-.35,4,4,0,0,1,1.57.12.9.9,0,0,1,.69,1.14,4.15,4.15,0,0,1-1.69,2.52,1.64,1.64,0,0,1-2.15.07c-.08.85.31,1.19,1.08,1a4.13,4.13,0,0,0,1.63-.76,4,4,0,0,0,1.82-2.78A1.61,1.61,0,0,0,32.89,34.88Z"/><path class="cls-12" d="M49.67,37.67a2.93,2.93,0,0,0-.55,0s.05-.9,0-1.17a3.56,3.56,0,0,0-.59-1.92c-.11-.15-.18-.16-.3,0a2.55,2.55,0,0,0-.37.69,10.89,10.89,0,0,1-1,2,9.89,9.89,0,0,0-1.24,2.68c0,.16-.16.4,0,.49a.55.55,0,0,0,.59-.1,2.5,2.5,0,0,0,.24-.22,1.28,1.28,0,0,0,.3-.67,8.65,8.65,0,0,1,.4-1.06l1.18.05s0,0,0,.22c0,.46,0,.93,0,1.39,0,.26,0,.74.25.72s.21-.43.24-.65c0-.4.1-.81.13-1.21s0-.46,0-.46.77,0,.94,0,.15-.17.09-.36S49.93,37.72,49.67,37.67Zm-1.21-.44c0,.18-.17.22-.31.23h-.76a6.84,6.84,0,0,1,1-2A10.79,10.79,0,0,1,48.46,37.23Z"/><path class="cls-14" d="M53.38,22.81a6.16,6.16,0,0,0-.26-2.09,1.07,1.07,0,0,0-1.22-.86,5,5,0,0,0-1.85.56c-1.21.46-2.41.95-3.62,1.43-.24.1-.35,0-.35-.24,0-.55,0-1.11,0-1.66,0-.15,0-.26.19-.33,1.19-.47,2.37-1,3.56-1.4a.57.57,0,0,0,.45-.62c0-.64,0-1.28,0-1.92v-.37s-2.69,1.06-3.86,1.54a5.22,5.22,0,0,0-1.66.92,3.8,3.8,0,0,0-1.12,2.5,24.15,24.15,0,0,0,0,4,2.79,2.79,0,0,0,.22,1.06,1,1,0,0,0,1.1.72,4.71,4.71,0,0,0,1.72-.52c1.29-.48,2.58-1,3.87-1.51.26-.11.35,0,.35.24,0,.57,0,1.13,0,1.69a.45.45,0,0,1-.32.5l-3,1.17-3.72,1.44a.31.31,0,0,0-.24.32v2.54c0,.23.06.25.27.17.68-.28,1.38-.52,2.06-.78L48,30.51l3-1.13a3.41,3.41,0,0,0,2.2-2.33,12.57,12.57,0,0,0,.25-3.29C53.38,23.44,53.39,23.12,53.38,22.81Z"/><path class="cls-15" d="M8,20.2c-2.54,0-5.09,0-7.63,0a1.13,1.13,0,0,0-.41.06c1.12.17,2.25.34,3.35.6a13.12,13.12,0,0,1,5,1.95c0-.79,0-1.53,0-2.28C8.39,20.28,8.32,20.2,8,20.2Z"/><path class="cls-16" d="M11.4,33.24c-.51-1.64-1-3.28-1.5-4.92-.14-.44-.14-.43.27-.63,1.14-.52,2.27-1.06,3.41-1.57a.36.36,0,0,0,.25-.4c0-2.47,0-4.94,0-7.4,0-.44,0-.45-.39-.27L9.11,20a.35.35,0,0,0-.23.38q0,3.53,0,7h0v7.05c0,.36,0,.37.35.21.66-.33,1.31-.68,2-1C11.44,33.59,11.47,33.48,11.4,33.24Z"/><path d="M22,33.1c-.08,0-.19-.06-.23,0a2.27,2.27,0,0,0-.26,1.4,2.12,2.12,0,0,0,1.09-1.36Z"/><path class="cls-17" d="M9.4,18.23q2-1.05,4-2.07a.37.37,0,0,0,.24-.41c0-.61,0-1.23-.05-1.85,0-.34,0-.34-.32-.18s-.89.47-1.35.69l-.45.24.31-.41,1.45-2.09c.12-.17.31-.33.32-.56,0-.48,0-1,0-1.45,0-.16-.07-.17-.2-.18-.29,0-.42.21-.58.37L8.43,14.79a.57.57,0,0,0-.17.41c0,.47,0,.94,0,1.42h0V18.1c0,.09,0,.23.12.23A2.33,2.33,0,0,0,9.4,18.23Z"/><path class="cls-18" d="M11.48,18.42c0,.11.13,0,.19,0L13,17.81s.12,0,.09-.12H10.64C11,18,11.41,18,11.48,18.42Z"/><path class="cls-12" d="M18,37.82c0-.21-1.27.53-1.27.53s.13-.32.19-.5a10.56,10.56,0,0,0,.38-1.57,3.25,3.25,0,0,0,0-1.64c-.19-.59-.44-.7-1-.39a13.05,13.05,0,0,0-3,2.55,3.68,3.68,0,0,0-.82,1.3.51.51,0,0,0,.51.67,6.11,6.11,0,0,0,1.89-.38,1.48,1.48,0,0,0,.84-.78,14.35,14.35,0,0,1-2.15.43c-.1,0-.35.06-.32-.06a.82.82,0,0,1,.15-.24,11.63,11.63,0,0,1,2.56-2.44c.18-.12.4-.39.55-.3s.13.44.15.67a7.26,7.26,0,0,1-.75,3l-1.24.78c-.86.53-1.77,1-2.62,1.53a4,4,0,0,0-1.68,1.71,1.29,1.29,0,0,0,.39,1.57,2.19,2.19,0,0,0,3-.37,12.83,12.83,0,0,0,1.19-2l1.32-2.69a6.46,6.46,0,0,1,.82-.45C17.51,38.59,17.93,38.36,18,37.82Zm-2.89,2.33c-.58,1-1,2.06-1.71,3a1.71,1.71,0,0,1-1.5.87,1.11,1.11,0,0,1-.86-.47.38.38,0,0,1-.06-.43,1.82,1.82,0,0,1,.46-.75,17.56,17.56,0,0,1,3.75-2.57A.41.41,0,0,1,15.11,40.15Z"/><path class="cls-12" d="M21.64,37.66l-.61,0s0-1.2,0-1.55a3.46,3.46,0,0,0-.5-1.52c-.14-.21-.26-.27-.42,0a3.66,3.66,0,0,0-.4.82,8.46,8.46,0,0,1-.8,1.66A10.56,10.56,0,0,0,17.55,40c0,.16-.12.37,0,.46a.55.55,0,0,0,.5-.07,1,1,0,0,0,.38-.36,1.88,1.88,0,0,0,.28-.59c.25-.85.26-.85,1.15-.94l.41,0s0,.31,0,.48c0,.44,0,.59,0,1,0,.28-.06.8.25.79s.44,0,.46-.18c0-.37,0-1,.05-1.37,0-.2,0-.78,0-.78h.84c.18,0,.22-.15.16-.36S21.88,37.65,21.64,37.66Zm-1.28-.43c0,.19-.14.22-.27.22H19.3a7.32,7.32,0,0,1,1-2A8.14,8.14,0,0,1,20.36,37.23Z"/></g></g></svg>